# xmcd CD database file
#
# Track frame offsets:
#	150
#	14210
#	36540
#	61510
#	80239
#	95073
#	113435
#	135797
#	161431
#	182010
#	205145
#	217278
#	237879
#
# Disc length: 3570 seconds
#
# Revision: 0
# Processed by: cddbd v1.5.2PL0 Copyright (c) Steve Scherf et al.
# Submitted via: CDex 1.51
#
DISCID=b30df00d
DTITLE=Dharma Heart Band - Lavender Mood
DYEAR=2009
DGENRE=New Age
TTITLE0=Lavender Mood
TTITLE1=Dreaming
TTITLE2=Ottatto
TTITLE3=Rain
TTITLE4=Sunrise
TTITLE5=Initiation
TTITLE6=Tear of the Clouds
TTITLE7=Under the Hand
TTITLE8=Recollections
TTITLE9=What If?
TTITLE10=First Steps
TTITLE11=Kalima
TTITLE12=Araiza's Song
EXTD=YEAR: 2009
EXTT0=
EXTT1=
EXTT2=
EXTT3=
EXTT4=
EXTT5=
EXTT6=
EXTT7=
EXTT8=
EXTT9=
EXTT10=
EXTT11=
EXTT12=
PLAYORDER=
